<?xml version="1.0" encoding="UTF-8"?>
<svg id="Layer_2" data-name="Layer 2" xmlns="http://www.w3.org/2000/svg" viewBox="0 0 614.85 369.49">
  <defs>
    <style>
      .cls-1 {
        fill: #fff;
      }
    </style>
  </defs>
  <g id="Layer_1-2" data-name="Layer 1">
    <g>
      <polygon class="cls-1" points="176.72 219.72 183.46 203.58 190.2 219.72 206.33 226.46 190.2 233.2 183.46 249.33 176.72 233.2 160.58 226.46 176.72 219.72"/>
      <polygon class="cls-1" points="286.73 16.14 293.47 0 300.21 16.14 316.35 22.88 300.21 29.62 293.47 45.75 286.73 29.62 270.6 22.88 286.73 16.14"/>
      <polygon class="cls-1" points="339.17 60.46 345.91 44.33 352.65 60.46 368.79 67.2 352.65 73.94 345.91 90.08 339.17 73.94 323.03 67.2 339.17 60.46"/>
      <polygon class="cls-1" points="373.43 138.86 380.17 122.72 386.91 138.86 403.04 145.6 386.91 152.34 380.17 168.48 373.43 152.34 357.29 145.6 373.43 138.86"/>
      <polygon class="cls-1" points="510.18 122.41 516.92 106.27 523.66 122.41 539.79 129.15 523.66 135.89 516.92 152.03 510.18 135.89 494.04 129.15 510.18 122.41"/>
      <polygon class="cls-1" points="585.23 228.83 591.97 212.69 598.71 228.83 614.85 235.57 598.71 242.31 591.97 258.44 585.23 242.31 569.1 235.57 585.23 228.83"/>
      <polygon class="cls-1" points="97.77 315.57 123.38 308.31 98.12 301.14 104.23 286.59 89.82 292.4 82.25 258.44 74.51 293.19 64.08 290.13 67.23 300.9 41.13 308.31 66.03 315.37 57.58 333.11 74.48 324.93 82.25 369.49 90.18 324.07 102.56 328.62 97.77 315.57"/>
      <polygon class="cls-1" points="56.65 124.33 82.25 117.07 56.99 109.9 63.1 95.35 48.7 101.16 41.13 67.2 33.38 101.95 22.95 98.89 26.11 109.66 0 117.07 24.91 124.13 16.45 141.87 33.35 133.69 41.13 178.25 49.05 132.83 61.43 137.38 56.65 124.33"/>
      <polygon class="cls-1" points="459.69 57.13 485.3 49.87 460.04 42.7 466.15 28.15 451.74 33.96 444.17 0 436.43 34.75 426 31.69 429.15 42.46 403.04 49.87 427.95 56.93 419.5 74.67 436.4 66.48 444.17 111.04 452.1 65.63 464.48 70.17 459.69 57.13"/>
      <polygon class="cls-1" points="425.43 260.05 451.04 252.79 425.78 245.62 431.89 231.07 417.48 236.88 409.91 202.92 402.17 237.67 391.74 234.61 394.89 245.38 368.79 252.79 393.69 259.85 385.24 277.59 402.14 269.41 409.91 313.96 417.84 268.55 430.22 273.09 425.43 260.05"/>
      <path class="cls-1" d="m114.83,285.2c-.8,0-1.59-.36-2.11-1.04-.89-1.17-.67-2.83.5-3.72l54.49-41.64c1.16-.89,2.83-.67,3.72.5.89,1.17.67,2.83-.5,3.72l-54.49,41.64c-.48.37-1.05.55-1.61.55Z"/>
      <path class="cls-1" d="m169.32,215.34c-.52,0-1.04-.15-1.5-.47l-102.82-70.49c-1.21-.83-1.52-2.48-.69-3.69.83-1.21,2.48-1.52,3.69-.69l102.82,70.49c1.21.83,1.52,2.48.69,3.69-.51.75-1.35,1.15-2.19,1.15Z"/>
      <path class="cls-1" d="m75.24,102.19c-1.12,0-2.17-.72-2.53-1.84-.45-1.4.32-2.89,1.72-3.34l195.35-62.72c1.4-.45,2.89.32,3.34,1.72.45,1.4-.32,2.89-1.72,3.34l-195.35,62.72c-.27.09-.54.13-.81.13Z"/>
      <path class="cls-1" d="m392.95,131.81c-.51,0-1.03-.15-1.49-.46-1.21-.82-1.53-2.47-.71-3.69l30.85-45.55c.82-1.21,2.47-1.53,3.69-.71,1.21.82,1.53,2.47.71,3.69l-30.85,45.55c-.51.76-1.35,1.17-2.2,1.17Z"/>
      <path class="cls-1" d="m398.09,220.94c-1.35,0-2.51-1.03-2.64-2.41l-5.14-54.49c-.14-1.46.93-2.76,2.39-2.89,1.46-.14,2.76.93,2.89,2.39l5.14,54.49c.14,1.46-.93,2.76-2.39,2.89-.09,0-.17.01-.25.01Z"/>
      <path class="cls-1" d="m499.88,113.7c-.81,0-1.61-.37-2.13-1.07l-27.76-37.21c-.88-1.18-.63-2.84.54-3.72,1.17-.88,2.84-.64,3.72.54l27.76,37.21c.88,1.18.63,2.84-.54,3.72-.48.36-1.03.53-1.59.53Z"/>
      <path class="cls-1" d="m577,220.94c-.86,0-1.71-.42-2.22-1.2l-47.81-72.69c-.81-1.23-.47-2.87.76-3.68,1.22-.81,2.87-.47,3.68.76l47.81,72.69c.81,1.23.47,2.87-.76,3.68-.45.3-.96.44-1.46.44Z"/>
      <path class="cls-1" d="m329.2,58.18c-.64,0-1.28-.23-1.79-.69l-20.56-18.71c-1.08-.99-1.16-2.67-.18-3.75.99-1.09,2.67-1.17,3.75-.18l20.56,18.71c1.08.99,1.16,2.67.18,3.75-.52.58-1.24.87-1.96.87Z"/>
      <path class="cls-1" d="m368.78,75.46c-1.22,0-2.33-.85-2.59-2.1-.31-1.43.6-2.85,2.04-3.15l47.81-10.28c1.43-.31,2.85.6,3.15,2.04.31,1.43-.6,2.85-2.04,3.15l-47.81,10.28c-.19.04-.38.06-.56.06Z"/>
    </g>
  </g>
</svg>