<?xml version="1.0" encoding="UTF-8"?>
<svg id="Layer_2" data-name="Layer 2" xmlns="http://www.w3.org/2000/svg" viewBox="0 0 524.35 465.9">
  <defs>
    <style>
      .cls-1 {
        fill: #fff;
      }
    </style>
  </defs>
  <g id="Layer_1-2" data-name="Layer 1">
    <g>
      <polygon class="cls-1" points="119.61 272.62 126.35 256.48 133.09 272.62 149.23 279.36 133.09 286.1 126.35 302.24 119.61 286.1 103.47 279.36 119.61 272.62"/>
      <polygon class="cls-1" points="142.49 380.77 149.23 364.63 155.97 380.77 172.1 387.51 155.97 394.25 149.23 410.38 142.49 394.25 126.35 387.51 142.49 380.77"/>
      <polygon class="cls-1" points="353.38 232.05 360.12 215.92 366.86 232.05 383 238.79 366.86 245.53 360.12 261.67 353.38 245.53 337.24 238.79 353.38 232.05"/>
      <polygon class="cls-1" points="282.43 190.93 289.17 174.79 295.91 190.93 312.05 197.67 295.91 204.41 289.17 220.54 282.43 204.41 266.3 197.67 282.43 190.93"/>
      <polygon class="cls-1" points="371.63 16.14 378.37 0 385.11 16.14 401.25 22.88 385.11 29.62 378.37 45.75 371.63 29.62 355.49 22.88 371.63 16.14"/>
      <polygon class="cls-1" points="56.65 411.99 82.25 404.73 56.99 397.56 63.1 383.01 48.7 388.82 41.13 354.86 33.38 389.61 22.95 386.55 26.11 397.32 0 404.73 24.91 411.79 16.45 429.53 33.35 421.35 41.13 465.9 49.05 420.49 61.43 425.03 56.65 411.99"/>
      <polygon class="cls-1" points="393.89 399.65 419.5 392.39 394.23 385.22 400.35 370.67 385.94 376.48 378.37 342.52 370.63 377.27 360.19 374.21 363.35 384.99 337.24 392.39 362.15 399.46 353.69 417.19 370.59 409.01 378.37 453.57 386.29 408.15 398.68 412.7 393.89 399.65"/>
      <polygon class="cls-1" points="498.74 113.82 524.35 106.56 499.08 99.39 505.2 84.84 490.79 90.65 483.22 56.69 475.48 91.44 465.05 88.38 468.2 99.15 442.09 106.56 467 113.62 458.55 131.36 475.45 123.17 483.22 167.73 491.14 122.32 503.53 126.86 498.74 113.82"/>
      <polygon class="cls-1" points="249.94 90.17 275.55 82.91 250.29 75.74 256.4 61.19 241.99 67 234.42 33.04 226.68 67.79 216.25 64.73 219.4 75.5 193.3 82.91 218.2 89.97 209.75 107.71 226.65 99.53 234.42 144.08 242.35 98.67 254.73 103.21 249.94 90.17"/>
      <path class="cls-1" d="m447.79,77.27c-.52,0-1.05-.15-1.52-.48l-50.89-35.47c-1.2-.84-1.5-2.49-.66-3.7.84-1.2,2.49-1.5,3.7-.66l50.89,35.47c1.2.84,1.5,2.49.66,3.7-.52.74-1.34,1.14-2.18,1.14Z"/>
      <path class="cls-1" d="m271.98,68.79c-1.09,0-2.11-.67-2.5-1.76-.5-1.38.22-2.9,1.6-3.4l83.51-30.07c1.38-.5,2.9.22,3.4,1.6.5,1.38-.22,2.9-1.6,3.4l-83.51,30.07c-.3.11-.6.16-.9.16Z"/>
      <path class="cls-1" d="m271.98,177.45c-1.04,0-2.03-.61-2.45-1.63l-23.13-55.45c-.56-1.35.07-2.91,1.43-3.47,1.35-.56,2.91.08,3.47,1.43l23.13,55.45c.56,1.35-.07,2.91-1.43,3.47-.33.14-.68.21-1.02.21Z"/>
      <path class="cls-1" d="m337.24,226.87c-.29,0-.59-.05-.88-.15l-32.87-11.57c-1.38-.49-2.11-2-1.62-3.39.49-1.38,2-2.11,3.39-1.62l32.87,11.57c1.38.49,2.11,2,1.62,3.39-.38,1.09-1.41,1.77-2.5,1.77Z"/>
      <path class="cls-1" d="m378.37,330.96c-1.38,0-2.54-1.06-2.65-2.46l-4.6-61.69c-.11-1.46.99-2.74,2.45-2.85,1.46-.11,2.74.99,2.85,2.45l4.6,61.69c.11,1.46-.99,2.74-2.45,2.85-.07,0-.13,0-.2,0Z"/>
      <path class="cls-1" d="m141.67,269.28c-1.03,0-2-.6-2.44-1.6-.58-1.35.04-2.91,1.38-3.49l124.63-53.98c1.35-.58,2.91.04,3.49,1.38.58,1.35-.04,2.91-1.38,3.49l-124.63,53.98c-.34.15-.7.22-1.05.22Z"/>
      <path class="cls-1" d="m59.16,376.46c-.47,0-.95-.13-1.39-.39-1.25-.77-1.64-2.4-.87-3.65l49.35-80.19c.77-1.25,2.4-1.64,3.65-.87,1.25.77,1.64,2.4.87,3.65l-49.35,80.19c-.5.82-1.37,1.26-2.26,1.26Z"/>
      <path class="cls-1" d="m78.11,398.77c-1.33,0-2.48-1-2.63-2.35-.17-1.46.88-2.77,2.33-2.94l44.73-5.14c1.46-.17,2.77.88,2.94,2.33.17,1.46-.88,2.77-2.33,2.94l-44.73,5.14c-.1.01-.21.02-.31.02Z"/>
      <path class="cls-1" d="m347.76,406.22c-.05,0-.11,0-.16,0l-170.68-10.28c-1.46-.09-2.58-1.35-2.49-2.81.09-1.46,1.34-2.58,2.81-2.49l170.68,10.28c1.46.09,2.58,1.35,2.49,2.81-.08,1.41-1.26,2.5-2.65,2.5Z"/>
    </g>
  </g>
</svg>