<?xml version="1.0" encoding="UTF-8"?>
<svg id="Layer_2" data-name="Layer 2" xmlns="http://www.w3.org/2000/svg" viewBox="0 0 512.84 390.63">
  <defs>
    <style>
      .cls-1 {
        fill: #fff;
      }
    </style>
  </defs>
  <g id="Layer_1-2" data-name="Layer 1">
    <g>
      <polygon class="cls-1" points="107.05 127.18 113.79 111.04 120.53 127.18 136.67 133.92 120.53 140.66 113.79 156.8 107.05 140.66 90.92 133.92 107.05 127.18"/>
      <polygon class="cls-1" points="408.9 150.06 415.64 133.92 422.38 150.06 438.52 156.8 422.38 163.54 415.64 179.67 408.9 163.54 392.76 156.8 408.9 150.06"/>
      <polygon class="cls-1" points="357.49 315.59 364.23 299.46 370.97 315.59 387.11 322.33 370.97 329.07 364.23 345.21 357.49 329.07 341.35 322.33 357.49 315.59"/>
      <polygon class="cls-1" points="282.63 57.13 308.24 49.87 282.98 42.7 289.09 28.15 274.68 33.96 267.11 0 259.37 34.75 248.94 31.69 252.09 42.46 225.99 49.87 250.89 56.93 242.44 74.67 259.34 66.48 267.11 111.04 275.04 65.63 287.42 70.17 282.63 57.13"/>
      <polygon class="cls-1" points="487.23 336.72 512.84 329.46 487.57 322.29 493.69 307.74 479.28 313.55 471.71 279.59 463.97 314.34 453.53 311.28 456.69 322.05 430.58 329.46 455.49 336.52 447.03 354.26 463.93 346.07 471.71 390.63 479.63 345.22 492.02 349.76 487.23 336.72"/>
      <polygon class="cls-1" points="16.14 315.59 22.88 299.46 29.62 315.59 45.75 322.33 29.62 329.07 22.88 345.21 16.14 329.07 0 322.33 16.14 315.59"/>
      <polygon class="cls-1" points="145.87 336.72 171.48 329.46 146.22 322.29 152.33 307.74 137.92 313.55 130.35 279.59 122.61 314.34 112.18 311.28 115.33 322.05 89.23 329.46 114.13 336.52 105.68 354.26 122.58 346.07 130.35 390.63 138.28 345.22 150.66 349.76 145.87 336.72"/>
      <path class="cls-1" d="m136.67,121.28c-.96,0-1.89-.52-2.36-1.44-.67-1.3-.16-2.9,1.14-3.58l93.51-48.33c1.3-.67,2.9-.16,3.58,1.14.67,1.3.16,2.9-1.14,3.58l-93.51,48.33c-.39.2-.81.3-1.22.3Z"/>
      <path class="cls-1" d="m379.27,159.45c-.05,0-.11,0-.16,0l-236.48-14.02c-1.46-.09-2.58-1.34-2.49-2.81.09-1.46,1.35-2.58,2.81-2.49l236.48,14.02c1.46.09,2.58,1.34,2.49,2.81-.08,1.41-1.25,2.5-2.65,2.5Z"/>
      <path class="cls-1" d="m392.76,136.58c-.56,0-1.13-.18-1.61-.55l-92.66-70.82c-1.17-.89-1.39-2.56-.5-3.72.89-1.16,2.56-1.39,3.72-.5l92.66,70.82c1.16.89,1.39,2.56.5,3.72-.52.68-1.31,1.04-2.11,1.04Z"/>
      <path class="cls-1" d="m453.3,292.98c-1.23,0-2.34-.87-2.6-2.12l-22.72-110.65c-.3-1.44.63-2.84,2.07-3.14,1.44-.3,2.84.63,3.14,2.07l22.72,110.65c.3,1.44-.63,2.84-2.07,3.14-.18.04-.36.05-.54.05Z"/>
      <path class="cls-1" d="m374.13,310.72c-.2,0-.41-.02-.61-.07-1.43-.33-2.31-1.76-1.98-3.19l31.36-133.41c.34-1.43,1.76-2.31,3.19-1.98,1.43.33,2.31,1.76,1.98,3.19l-31.36,133.41c-.29,1.22-1.38,2.05-2.58,2.05Z"/>
      <path class="cls-1" d="m441.94,340.53c-.12,0-.25,0-.37-.03l-58.81-8.22c-1.45-.2-2.46-1.55-2.26-3,.2-1.45,1.54-2.46,3-2.26l58.81,8.22c1.45.2,2.46,1.55,2.26,3-.19,1.33-1.32,2.29-2.63,2.29Z"/>
      <path class="cls-1" d="m83.16,327.17c-.07,0-.14,0-.21,0l-27.5-2.18c-1.46-.12-2.55-1.39-2.44-2.86.12-1.46,1.38-2.56,2.86-2.44l27.5,2.18c1.46.12,2.55,1.39,2.44,2.86-.11,1.39-1.27,2.45-2.64,2.45Z"/>
      <path class="cls-1" d="m119.14,300.43s-.05,0-.08,0c-1.47-.04-2.62-1.26-2.58-2.73l4.11-147.99c.04-1.46,1.21-2.65,2.73-2.58,1.47.04,2.62,1.26,2.58,2.73l-4.11,147.99c-.04,1.44-1.22,2.58-2.65,2.58Z"/>
      <path class="cls-1" d="m34.31,310.72c-.34,0-.69-.07-1.03-.21-1.35-.57-1.99-2.13-1.42-3.48l67.6-160.65c.57-1.35,2.12-1.99,3.48-1.42,1.35.57,1.99,2.13,1.42,3.48l-67.6,160.65c-.43,1.01-1.41,1.63-2.45,1.63Z"/>
    </g>
  </g>
</svg>