<?xml version="1.0" encoding="UTF-8"?>
<svg id="Layer_2" data-name="Layer 2" xmlns="http://www.w3.org/2000/svg" viewBox="0 0 509.95 222.09">
  <defs>
    <style>
      .cls-1 {
        fill: #fff;
      }
    </style>
  </defs>
  <g id="Layer_1-2" data-name="Layer 1">
    <g>
      <polygon class="cls-1" points="323.11 34.87 329.85 18.73 336.59 34.87 352.72 41.61 336.59 48.35 329.85 64.49 323.11 48.35 306.97 41.61 323.11 34.87"/>
      <polygon class="cls-1" points="387.29 91.97 394.03 75.83 400.77 91.97 416.9 98.71 400.77 105.45 394.03 121.58 387.29 105.45 371.15 98.71 387.29 91.97"/>
      <polygon class="cls-1" points="56.65 57.13 82.25 49.87 56.99 42.7 63.1 28.15 48.7 33.96 41.13 0 33.38 34.75 22.95 31.69 26.11 42.46 0 49.87 24.91 56.93 16.45 74.67 33.35 66.48 41.13 111.04 49.05 65.63 61.43 70.17 56.65 57.13"/>
      <polygon class="cls-1" points="484.34 168.17 509.95 160.91 484.69 153.74 490.8 139.19 476.39 145 468.83 111.04 461.08 145.79 450.65 142.73 453.8 153.5 427.7 160.91 452.61 167.97 444.15 185.71 461.05 177.53 468.83 222.09 476.75 176.67 489.13 181.22 484.34 168.17"/>
      <path class="cls-1" d="m90.07,52.76c-1.42,0-2.6-1.13-2.65-2.56-.05-1.47,1.1-2.69,2.56-2.75l210-7.2c1.41-.04,2.69,1.1,2.75,2.56.05,1.47-1.1,2.69-2.56,2.75l-210,7.2s-.06,0-.09,0Z"/>
      <path class="cls-1" d="m380.02,88.49c-.64,0-1.28-.23-1.79-.7l-37.01-33.93c-1.08-.99-1.15-2.67-.16-3.75.99-1.08,2.67-1.15,3.75-.16l37.01,33.93c1.08.99,1.15,2.67.16,3.75-.52.57-1.24.86-1.96.86Z"/>
      <path class="cls-1" d="m443.25,146.07c-.61,0-1.23-.21-1.73-.64l-37.79-32.37c-1.11-.95-1.24-2.63-.29-3.74.96-1.11,2.63-1.24,3.74-.29l37.79,32.37c1.11.95,1.24,2.63.29,3.75-.53.61-1.27.93-2.02.93Z"/>
    </g>
  </g>
</svg>