<?xml version="1.0" encoding="UTF-8"?>
<svg id="Layer_2" data-name="Layer 2" xmlns="http://www.w3.org/2000/svg" viewBox="0 0 524.37 523">
  <defs>
    <style>
      .cls-1 {
        fill: #fff;
      }
    </style>
  </defs>
  <g id="Layer_1-2" data-name="Layer 1">
    <g>
      <polygon class="cls-1" points="144.14 493.38 150.89 477.24 157.62 493.38 173.76 500.12 157.62 506.86 150.89 523 144.14 506.86 128.01 500.12 144.14 493.38"/>
      <polygon class="cls-1" points="199.79 411.41 206.53 395.27 213.27 411.41 229.41 418.15 213.27 424.89 206.53 441.03 199.79 424.89 183.65 418.15 199.79 411.41"/>
      <polygon class="cls-1" points="217.98 299.71 224.72 283.58 231.46 299.71 247.59 306.45 231.46 313.19 224.72 329.33 217.98 313.19 201.84 306.45 217.98 299.71"/>
      <polygon class="cls-1" points="301.26 220.42 308 204.28 314.74 220.42 330.88 227.16 314.74 233.9 308 250.03 301.26 233.9 285.12 227.16 301.26 220.42"/>
      <polygon class="cls-1" points="56.65 341.36 82.25 334.1 56.99 326.93 63.1 312.38 48.7 318.19 41.13 284.23 33.38 318.98 22.95 315.92 26.11 326.69 0 334.1 24.91 341.16 16.45 358.9 33.35 350.72 41.13 395.27 49.05 349.86 61.43 354.41 56.65 341.36"/>
      <polygon class="cls-1" points="498.76 57.13 524.37 49.87 499.11 42.7 505.22 28.15 490.81 33.96 483.24 0 475.5 34.75 465.07 31.69 468.22 42.46 442.12 49.87 467.02 56.93 458.57 74.67 475.47 66.48 483.24 111.04 491.17 65.63 503.55 70.17 498.76 57.13"/>
      <path class="cls-1" d="m199.92,322.65h-120.81c-1.47,0-2.66-1.19-2.66-2.66s1.19-2.66,2.66-2.66h120.81c1.47,0,2.66,1.19,2.66,2.66s-1.19,2.66-2.66,2.66Z"/>
      <path class="cls-1" d="m219.46,401.3c-.11,0-.22,0-.33-.02-1.46-.18-2.49-1.5-2.31-2.96l7.2-58.89c.18-1.46,1.5-2.48,2.96-2.31,1.46.18,2.49,1.5,2.31,2.96l-7.2,58.89c-.16,1.35-1.31,2.33-2.63,2.33Z"/>
      <path class="cls-1" d="m164.96,487.67c-.5,0-1-.14-1.45-.43-1.23-.8-1.57-2.45-.77-3.68l28.79-43.98c.8-1.23,2.45-1.57,3.68-.77,1.23.8,1.57,2.45.77,3.68l-28.79,43.98c-.51.78-1.36,1.2-2.22,1.2Z"/>
      <path class="cls-1" d="m244.13,293.74c-.69,0-1.37-.26-1.89-.79-1.03-1.04-1.02-2.73.03-3.76l47.3-46.67c1.04-1.03,2.72-1.02,3.75.03,1.03,1.04,1.02,2.73-.03,3.76l-47.29,46.67c-.52.51-1.19.77-1.87.77Z"/>
      <path class="cls-1" d="m330.88,213.24c-.69,0-1.37-.26-1.89-.79-1.03-1.04-1.02-2.73.03-3.75l131.44-129.54c1.05-1.03,2.73-1.02,3.76.03,1.03,1.04,1.02,2.73-.03,3.75l-131.44,129.54c-.52.51-1.19.76-1.86.76Z"/>
    </g>
  </g>
</svg>