<?xml version="1.0" encoding="UTF-8"?>
<svg id="Layer_2" data-name="Layer 2" xmlns="http://www.w3.org/2000/svg" viewBox="0 0 577.64 437.01">
  <defs>
    <style>
      .cls-1 {
        fill: #fff;
      }
    </style>
  </defs>
  <g id="Layer_1-2" data-name="Layer 1">
    <g>
      <polygon class="cls-1" points="50.33 77.56 57.07 61.42 63.81 77.56 79.95 84.3 63.81 91.04 57.07 107.18 50.33 91.04 34.2 84.3 50.33 77.56"/>
      <polygon class="cls-1" points="192.22 116.12 198.96 99.98 205.7 116.12 221.84 122.86 205.7 129.6 198.96 145.74 192.22 129.6 176.08 122.86 192.22 116.12"/>
      <polygon class="cls-1" points="101.74 161.87 108.48 145.74 115.22 161.87 131.36 168.61 115.22 175.35 108.48 191.49 101.74 175.35 85.6 168.61 101.74 161.87"/>
      <polygon class="cls-1" points="243.68 277.09 250.42 260.95 257.16 277.09 273.3 283.83 257.16 290.57 250.42 306.71 243.68 290.57 227.54 283.83 243.68 277.09"/>
      <polygon class="cls-1" points="372.2 289.43 378.94 273.29 385.68 289.43 401.82 296.17 385.68 302.91 378.94 319.04 372.2 302.91 356.06 296.17 372.2 289.43"/>
      <polygon class="cls-1" points="548.02 296.35 554.76 280.21 561.5 296.35 577.64 303.09 561.5 309.83 554.76 325.97 548.02 309.83 531.88 303.09 548.02 296.35"/>
      <polygon class="cls-1" points="450.03 362.16 456.77 346.02 463.51 362.16 479.65 368.9 463.51 375.64 456.77 391.77 450.03 375.64 433.89 368.9 450.03 362.16"/>
      <polygon class="cls-1" points="165.13 57.13 190.74 49.87 165.47 42.7 171.58 28.15 157.18 33.96 149.61 0 141.86 34.75 131.43 31.69 134.59 42.46 108.48 49.87 133.39 56.93 124.93 74.67 141.83 66.48 149.61 111.04 157.53 65.63 169.92 70.17 165.13 57.13"/>
      <polygon class="cls-1" points="56.65 383.1 82.25 375.84 56.99 368.67 63.1 354.12 48.7 359.93 41.13 325.97 33.38 360.71 22.95 357.66 26.11 368.43 0 375.84 24.91 382.9 16.45 400.64 33.35 392.45 41.13 437.01 49.05 391.6 61.43 396.14 56.65 383.1"/>
      <polygon class="cls-1" points="490.54 202.87 516.15 195.6 490.88 188.44 497 173.88 482.59 179.7 475.02 145.74 467.27 180.48 456.84 177.43 460 188.2 433.89 195.6 458.8 202.67 450.34 220.41 467.24 212.22 475.02 256.78 482.94 211.36 495.32 215.91 490.54 202.87"/>
      <path class="cls-1" d="m76.2,75.51c-1.19,0-2.27-.8-2.57-2.01-.36-1.42.5-2.87,1.92-3.22l45.24-11.43c1.42-.36,2.87.5,3.22,1.92.36,1.42-.5,2.87-1.92,3.22l-45.24,11.43c-.22.05-.44.08-.65.08Z"/>
      <path class="cls-1" d="m96.26,156.22c-.97,0-1.91-.54-2.38-1.46l-28.02-55.78c-.66-1.31-.13-2.91,1.18-3.56,1.31-.66,2.91-.13,3.57,1.18l28.02,55.78c.66,1.31.13,2.91-1.18,3.56-.38.19-.79.28-1.19.28Z"/>
      <path class="cls-1" d="m124.53,160.59c-1.08,0-2.09-.66-2.49-1.73-.51-1.38.19-2.9,1.57-3.41l60.41-22.36c1.38-.51,2.9.19,3.41,1.57.51,1.38-.19,2.9-1.57,3.41l-60.41,22.36c-.3.11-.62.17-.92.17Z"/>
      <path class="cls-1" d="m186.22,112.27c-1.04,0-2.03-.61-2.45-1.63l-14.39-34.44c-.57-1.35.07-2.91,1.43-3.47,1.35-.57,2.91.07,3.47,1.43l14.39,34.44c.57,1.35-.07,2.91-1.43,3.47-.33.14-.68.21-1.02.21Z"/>
      <path class="cls-1" d="m57.07,348.67c-.21,0-.43-.03-.64-.08-1.42-.35-2.29-1.79-1.94-3.22l39.18-157.75c.35-1.42,1.8-2.29,3.22-1.94,1.42.35,2.29,1.79,1.94,3.22l-39.18,157.75c-.3,1.21-1.38,2.02-2.58,2.02Z"/>
      <path class="cls-1" d="m72.87,365.54c-1.05,0-2.04-.62-2.46-1.65-.56-1.36.09-2.91,1.45-3.46l162.45-66.72c1.36-.56,2.91.09,3.46,1.45.56,1.36-.09,2.91-1.45,3.46l-162.45,66.72c-.33.13-.67.2-1.01.2Z"/>
      <path class="cls-1" d="m348.42,293.23c-.09,0-.18,0-.27-.01l-67.35-6.74c-1.46-.15-2.52-1.45-2.38-2.91.15-1.46,1.45-2.53,2.91-2.38l67.35,6.74c1.46.15,2.52,1.45,2.38,2.91-.14,1.37-1.29,2.39-2.64,2.39Z"/>
      <path class="cls-1" d="m436.12,348.67c-.61,0-1.21-.21-1.71-.63l-39.33-33.29c-1.12-.95-1.26-2.62-.31-3.74.95-1.12,2.62-1.26,3.74-.31l39.33,33.29c1.12.95,1.26,2.62.31,3.74-.53.62-1.27.94-2.03.94Z"/>
      <path class="cls-1" d="m475.02,357.8c-.9,0-1.78-.46-2.28-1.28-.76-1.26-.35-2.89.9-3.65l59.8-36.09c1.26-.76,2.89-.35,3.65.9.76,1.26.35,2.89-.9,3.65l-59.8,36.09c-.43.26-.9.38-1.37.38Z"/>
      <path class="cls-1" d="m540.17,286.48c-.85,0-1.69-.41-2.2-1.17l-40.82-60.55c-.82-1.22-.5-2.87.72-3.69,1.22-.82,2.87-.5,3.69.72l40.82,60.55c.82,1.22.5,2.87-.72,3.69-.46.31-.97.45-1.48.45Z"/>
      <path class="cls-1" d="m396.79,282.87c-.62,0-1.24-.22-1.75-.66-1.1-.96-1.22-2.64-.25-3.75l47.04-53.85c.96-1.1,2.64-1.22,3.75-.25,1.1.96,1.22,2.64.25,3.75l-47.04,53.85c-.53.6-1.26.91-2,.91Z"/>
    </g>
  </g>
</svg>