<?xml version="1.0" encoding="UTF-8"?>
<svg id="Layer_2" data-name="Layer 2" xmlns="http://www.w3.org/2000/svg" viewBox="0 0 599.17 524.91">
  <defs>
    <style>
      .cls-1 {
        fill: #fff;
      }
    </style>
  </defs>
  <g id="Layer_1-2" data-name="Layer 1">
    <g>
      <polygon class="cls-1" points="16.14 393.81 22.88 377.67 29.62 393.81 45.75 400.55 29.62 407.29 22.88 423.43 16.14 407.29 0 400.55 16.14 393.81"/>
      <polygon class="cls-1" points="262.9 370.93 269.64 354.8 276.38 370.93 292.52 377.67 276.38 384.41 269.64 400.55 262.9 384.41 246.76 377.67 262.9 370.93"/>
      <polygon class="cls-1" points="189.13 283.17 195.87 267.04 202.61 283.17 218.74 289.91 202.61 296.65 195.87 312.79 189.13 296.65 172.99 289.91 189.13 283.17"/>
      <polygon class="cls-1" points="313.54 202.54 320.28 186.4 327.02 202.54 343.16 209.28 327.02 216.02 320.28 232.16 313.54 216.02 297.41 209.28 313.54 202.54"/>
      <polygon class="cls-1" points="447.2 47.33 453.94 31.19 460.68 47.33 476.82 54.07 460.68 60.81 453.94 76.94 447.2 60.81 431.06 54.07 447.2 47.33"/>
      <polygon class="cls-1" points="528.43 154.26 535.17 138.12 541.91 154.26 558.04 161 541.91 167.74 535.17 183.87 528.43 167.74 512.29 161 528.43 154.26"/>
      <polygon class="cls-1" points="105.75 282.95 131.36 275.68 106.09 268.52 112.21 253.96 97.8 259.78 90.23 225.82 82.49 260.56 72.05 257.51 75.21 268.28 49.1 275.68 74.01 282.75 65.55 300.49 82.46 292.3 90.23 336.86 98.15 291.44 110.54 295.99 105.75 282.95"/>
      <polygon class="cls-1" points="428.33 171.9 453.94 164.64 428.68 157.47 434.79 142.92 420.38 148.73 412.81 114.77 405.07 149.52 394.64 146.46 397.79 157.24 371.69 164.64 396.59 171.71 388.14 189.44 405.04 181.26 412.81 225.82 420.74 180.4 433.12 184.95 428.33 171.9"/>
      <polygon class="cls-1" points="573.56 57.13 599.17 49.87 573.91 42.7 580.02 28.15 565.61 33.96 558.04 0 550.3 34.75 539.87 31.69 543.02 42.46 516.92 49.87 541.82 56.93 533.37 74.67 550.27 66.48 558.04 111.04 565.97 65.63 578.35 70.17 573.56 57.13"/>
      <polygon class="cls-1" points="170.26 470.99 195.87 463.73 170.6 456.56 176.72 442.01 162.31 447.82 154.74 413.86 147 448.61 136.56 445.55 139.72 456.32 113.61 463.73 138.52 470.8 130.06 488.53 146.97 480.35 154.74 524.91 162.66 479.49 175.05 484.04 170.26 470.99"/>
      <path class="cls-1" d="m33.68,386.3c-.44,0-.88-.11-1.29-.34-1.28-.72-1.74-2.33-1.02-3.61l41.39-74.03c.71-1.28,2.33-1.74,3.61-1.02,1.28.72,1.74,2.33,1.02,3.61l-41.39,74.03c-.49.87-1.39,1.36-2.32,1.36Z"/>
      <path class="cls-1" d="m127.5,454.93c-.35,0-.71-.07-1.05-.22l-93.82-40.61c-1.35-.58-1.96-2.15-1.38-3.49.58-1.35,2.15-1.96,3.49-1.38l93.82,40.61c1.35.58,1.96,2.15,1.38,3.49-.43,1-1.41,1.6-2.44,1.6Z"/>
      <path class="cls-1" d="m191.45,451.13c-.72,0-1.43-.29-1.95-.86-.99-1.08-.92-2.76.15-3.75l63.6-58.6c1.08-1,2.76-.92,3.75.15.99,1.08.93,2.76-.15,3.75l-63.6,58.6c-.51.47-1.16.7-1.8.7Z"/>
      <path class="cls-1" d="m255.05,365.54c-.79,0-1.56-.35-2.09-1.01l-48.02-60.83c-.91-1.15-.71-2.82.44-3.73,1.15-.91,2.82-.71,3.73.44l48.02,60.83c.91,1.15.71,2.82-.44,3.73-.49.38-1.07.57-1.64.57Z"/>
      <path class="cls-1" d="m211.86,280.05c-.9,0-1.77-.45-2.27-1.28-.76-1.25-.36-2.89.89-3.65l91.54-55.61c1.26-.76,2.89-.36,3.65.89.76,1.25.36,2.89-.89,3.65l-91.54,55.61c-.43.26-.91.39-1.38.39Z"/>
      <path class="cls-1" d="m340.08,202.94c-.97,0-1.9-.53-2.37-1.45-.66-1.31-.14-2.91,1.17-3.57l41.81-21.25c1.31-.66,2.91-.14,3.57,1.16.66,1.31.14,2.91-1.16,3.57l-41.81,21.25c-.39.2-.8.29-1.2.29Z"/>
      <path class="cls-1" d="m423.36,137.82c-.23,0-.47-.03-.71-.1-1.41-.39-2.24-1.85-1.85-3.27l18.51-66.83c.39-1.41,1.85-2.24,3.27-1.85,1.41.39,2.24,1.85,1.85,3.27l-18.51,66.83c-.33,1.18-1.39,1.95-2.56,1.95Z"/>
      <path class="cls-1" d="m503.22,161.81s-.08,0-.12,0l-61.35-2.74c-1.46-.07-2.6-1.31-2.53-2.77.07-1.46,1.33-2.6,2.77-2.53l61.35,2.74c1.47.07,2.6,1.31,2.53,2.77-.06,1.42-1.24,2.54-2.65,2.54Z"/>
      <path class="cls-1" d="m441.87,144.68c-.79,0-1.58-.35-2.1-1.03-.9-1.16-.68-2.83.48-3.72l84.31-65.08c1.16-.9,2.83-.68,3.72.48.9,1.16.68,2.83-.48,3.72l-84.31,65.08c-.48.37-1.05.55-1.62.55Z"/>
    </g>
  </g>
</svg>