<?xml version="1.0" encoding="UTF-8"?>
<svg id="Layer_2" data-name="Layer 2" xmlns="http://www.w3.org/2000/svg" viewBox="0 0 495.07 327.99">
  <defs>
    <style>
      .cls-1 {
        fill: #fff;
      }
    </style>
  </defs>
  <g id="Layer_1-2" data-name="Layer 1">
    <g>
      <polygon class="cls-1" points="269.33 298.37 276.07 282.23 282.81 298.37 298.94 305.11 282.81 311.85 276.07 327.99 269.33 311.85 253.19 305.11 269.33 298.37"/>
      <polygon class="cls-1" points="16.14 81.43 22.88 65.29 29.62 81.43 45.75 88.17 29.62 94.91 22.88 111.04 16.14 94.91 0 88.17 16.14 81.43"/>
      <polygon class="cls-1" points="102.4 224.21 128.01 216.95 102.74 209.78 108.86 195.23 94.45 201.04 86.88 167.08 79.14 201.82 68.71 198.77 71.86 209.54 45.75 216.95 70.66 224.01 62.21 241.75 79.11 233.56 86.88 278.12 94.8 232.71 107.19 237.25 102.4 224.21"/>
      <polygon class="cls-1" points="279.93 166.63 305.54 159.37 280.28 152.2 286.39 137.65 271.98 143.46 264.41 109.5 256.67 144.25 246.24 141.19 249.39 151.96 223.29 159.37 248.19 166.43 239.74 184.17 256.64 175.98 264.41 220.54 272.34 175.13 284.72 179.67 279.93 166.63"/>
      <polygon class="cls-1" points="469.46 57.13 495.07 49.87 469.8 42.7 475.92 28.15 461.51 33.96 453.94 0 446.2 34.75 435.76 31.69 438.92 42.46 412.81 49.87 437.72 56.93 429.26 74.67 446.17 66.48 453.94 111.04 461.86 65.63 474.25 70.17 469.46 57.13"/>
      <path class="cls-1" d="m65.19,191.49c-1.07,0-2.08-.65-2.48-1.71L29.39,102.74c-.52-1.37.16-2.9,1.53-3.43,1.37-.53,2.91.16,3.43,1.53l33.31,87.04c.52,1.37-.16,2.91-1.53,3.43-.31.12-.63.18-.95.18Z"/>
      <path class="cls-1" d="m246.76,297.23c-.29,0-.59-.05-.88-.15l-135.72-47.81c-1.38-.49-2.11-2-1.62-3.39.49-1.38,2-2.11,3.39-1.62l135.72,47.81c1.38.49,2.11,2,1.62,3.39-.38,1.09-1.41,1.77-2.5,1.77Z"/>
      <path class="cls-1" d="m289.94,293.63c-.53,0-1.07-.16-1.54-.5-1.19-.85-1.47-2.51-.62-3.7l150.63-210.52c.85-1.19,2.51-1.47,3.71-.61,1.19.85,1.47,2.51.61,3.7l-150.63,210.52c-.52.72-1.33,1.11-2.16,1.11Z"/>
      <path class="cls-1" d="m294.62,139.46c-.93,0-1.83-.49-2.32-1.35-.72-1.28-.27-2.9,1.01-3.62l126.93-71.52c1.28-.72,2.9-.27,3.62,1.01.72,1.28.27,2.9-1.01,3.62l-126.93,71.52c-.41.23-.86.34-1.3.34Z"/>
      <path class="cls-1" d="m227.72,154.87c-.25,0-.5-.03-.74-.11L40.21,100.4c-1.41-.41-2.22-1.88-1.81-3.29.41-1.41,1.88-2.22,3.29-1.81l186.77,54.37c1.41.41,2.22,1.88,1.81,3.29-.34,1.16-1.4,1.91-2.55,1.91Z"/>
    </g>
  </g>
</svg>