<?xml version="1.0" encoding="UTF-8"?>
<svg id="Layer_2" data-name="Layer 2" xmlns="http://www.w3.org/2000/svg" viewBox="0 0 775.11 700.92">
  <defs>
    <style>
      .cls-1 {
        fill: #fff;
      }
    </style>
  </defs>
  <g id="Layer_1-2" data-name="Layer 1">
    <g>
      <polygon class="cls-1" points="16.14 388.04 22.88 371.91 29.62 388.04 45.75 394.78 29.62 401.52 22.88 417.66 16.14 401.52 0 394.78 16.14 388.04"/>
      <polygon class="cls-1" points="87.08 466.44 93.82 450.3 100.56 466.44 116.7 473.18 100.56 479.92 93.82 496.06 87.08 479.92 70.94 473.18 87.08 466.44"/>
      <polygon class="cls-1" points="232.05 262.15 238.79 246.01 245.53 262.15 261.67 268.89 245.53 275.63 238.79 291.77 232.05 275.63 215.92 268.89 232.05 262.15"/>
      <polygon class="cls-1" points="308.14 420.69 314.88 404.55 321.62 420.69 337.76 427.43 321.62 434.17 314.88 450.3 308.14 434.17 292 427.43 308.14 420.69"/>
      <polygon class="cls-1" points="458.89 520.42 465.63 504.28 472.37 520.42 488.51 527.16 472.37 533.9 465.63 550.04 458.89 533.9 442.76 527.16 458.89 520.42"/>
      <polygon class="cls-1" points="360.19 583.14 366.93 567 373.67 583.14 389.8 589.88 373.67 596.62 366.93 612.76 360.19 596.62 344.05 589.88 360.19 583.14"/>
      <polygon class="cls-1" points="657.33 497.54 664.07 481.41 670.81 497.54 686.95 504.28 670.81 511.02 664.07 527.16 657.33 511.02 641.19 504.28 657.33 497.54"/>
      <polygon class="cls-1" points="581.25 332.52 587.99 316.38 594.73 332.52 610.86 339.26 594.73 346 587.99 362.14 581.25 346 565.11 339.26 581.25 332.52"/>
      <polygon class="cls-1" points="745.5 216.39 752.24 200.26 758.98 216.39 775.11 223.13 758.98 229.88 752.24 246.01 745.5 229.88 729.36 223.13 745.5 216.39"/>
      <polygon class="cls-1" points="619.03 169.75 625.77 153.61 632.51 169.75 648.65 176.49 632.51 183.23 625.77 199.37 619.03 183.23 602.89 176.49 619.03 169.75"/>
      <polygon class="cls-1" points="145.51 375.81 171.11 368.54 145.85 361.38 151.96 346.82 137.56 352.64 129.99 318.68 122.24 353.42 111.81 350.37 114.97 361.14 88.86 368.54 113.77 375.61 105.31 393.35 122.21 385.16 129.99 429.72 137.91 384.3 150.29 388.85 145.51 375.81"/>
      <polygon class="cls-1" points="417.15 337.79 442.76 330.53 417.49 323.36 423.61 308.81 409.2 314.62 401.63 280.66 393.89 315.41 383.45 312.35 386.61 323.12 360.5 330.53 385.41 337.59 376.95 355.33 393.85 347.14 401.63 391.7 409.55 346.29 421.94 350.83 417.15 337.79"/>
      <polygon class="cls-1" points="726.63 346.42 752.24 339.15 726.97 331.99 733.09 317.43 718.68 323.25 711.11 289.29 703.37 324.03 692.93 320.98 696.09 331.75 669.98 339.15 694.89 346.22 686.43 363.96 703.34 355.77 711.11 400.33 719.03 354.92 731.42 359.46 726.63 346.42"/>
      <polygon class="cls-1" points="720.72 57.13 746.33 49.87 721.06 42.7 727.18 28.15 712.77 33.96 705.2 0 697.45 34.75 687.02 31.69 690.18 42.46 664.07 49.87 688.98 56.93 680.52 74.67 697.42 66.48 705.2 111.04 713.12 65.63 725.5 70.17 720.72 57.13"/>
      <polygon class="cls-1" points="674.19 647.01 699.8 639.75 674.54 632.58 680.65 618.03 666.24 623.84 658.67 589.88 650.93 624.63 640.5 621.57 643.65 632.34 617.55 639.75 642.45 646.81 634 664.55 650.9 656.36 658.67 700.92 666.6 655.51 678.98 660.05 674.19 647.01"/>
      <path class="cls-1" d="m648.65,156.27c-.4,0-.81-.09-1.19-.29-1.31-.66-1.83-2.26-1.17-3.57l29-57.4c.66-1.31,2.26-1.83,3.57-1.17,1.31.66,1.83,2.26,1.17,3.57l-29,57.4c-.47.92-1.4,1.46-2.37,1.46Z"/>
      <path class="cls-1" d="m729.36,211.94c-.2,0-.4-.02-.61-.07l-77.76-18.16c-1.43-.33-2.32-1.76-1.98-3.19.33-1.43,1.76-2.32,3.19-1.98l77.76,18.16c1.43.33,2.32,1.76,1.98,3.19-.29,1.22-1.38,2.05-2.58,2.05Z"/>
      <path class="cls-1" d="m724.6,308.93c-.25,0-.51-.04-.76-.11-1.41-.42-2.21-1.9-1.79-3.3l17.48-58.61c.42-1.41,1.9-2.21,3.3-1.79,1.41.42,2.21,1.9,1.79,3.3l-17.48,58.61c-.34,1.15-1.4,1.9-2.54,1.9Z"/>
      <path class="cls-1" d="m109.06,449.53c-.16,0-.32-.01-.48-.04-1.44-.26-2.4-1.64-2.14-3.08l7.64-42.32c.26-1.44,1.64-2.4,3.09-2.14,1.44.26,2.4,1.64,2.14,3.09l-7.64,42.32c-.23,1.28-1.35,2.18-2.61,2.18Z"/>
      <path class="cls-1" d="m88.86,382.59h-43.11c-1.47,0-2.66-1.19-2.66-2.66s1.19-2.66,2.66-2.66h43.11c1.47,0,2.66,1.19,2.66,2.66s-1.19,2.66-2.66,2.66Z"/>
      <path class="cls-1" d="m165.35,341.92c-.71,0-1.41-.28-1.94-.84-1-1.07-.95-2.75.12-3.75l50.57-47.5c1.07-1,2.75-.95,3.75.12,1,1.07.95,2.75-.12,3.75l-50.57,47.5c-.51.48-1.17.72-1.82.72Z"/>
      <path class="cls-1" d="m372.77,318.17c-.23,0-.47-.03-.71-.1l-111.1-30.57c-1.41-.39-2.24-1.85-1.86-3.27.39-1.41,1.85-2.24,3.27-1.86l111.1,30.57c1.41.39,2.24,1.85,1.86,3.26-.32,1.18-1.39,1.95-2.56,1.95Z"/>
      <path class="cls-1" d="m333.45,410.97c-.68,0-1.36-.26-1.88-.78-1.04-1.04-1.03-2.72,0-3.76l46.27-46.18c1.04-1.04,2.72-1.03,3.76,0,1.04,1.04,1.03,2.72,0,3.76l-46.27,46.18c-.52.52-1.2.78-1.88.78Z"/>
      <path class="cls-1" d="m379.71,569.66s-.06,0-.1,0c-1.47-.05-2.61-1.28-2.56-2.75l6.94-195.1c.05-1.47,1.31-2.61,2.75-2.56,1.47.05,2.61,1.28,2.56,2.75l-6.94,195.1c-.05,1.43-1.23,2.56-2.65,2.56Z"/>
      <path class="cls-1" d="m401.63,569.66c-.91,0-1.8-.47-2.29-1.31-.74-1.27-.32-2.89.95-3.63l44.4-26.06c1.26-.74,2.89-.32,3.63.95.74,1.27.32,2.89-.95,3.63l-44.4,26.06c-.42.25-.89.37-1.34.37Z"/>
      <path class="cls-1" d="m449.11,506.94c-1.21,0-2.3-.83-2.58-2.06l-31.61-137.21c-.33-1.43.56-2.85,1.99-3.18,1.43-.33,2.85.56,3.18,1.99l31.61,137.21c.33,1.43-.56,2.86-1.99,3.18-.2.05-.4.07-.6.07Z"/>
      <path class="cls-1" d="m503.08,526.64c-1.36,0-2.52-1.04-2.64-2.41-.13-1.46.94-2.75,2.4-2.89l126.46-11.57c1.48-.14,2.75.94,2.89,2.4.13,1.46-.94,2.75-2.4,2.89l-126.46,11.57c-.08,0-.16.01-.25.01Z"/>
      <path class="cls-1" d="m660.85,576.95c-.07,0-.15,0-.22,0-1.46-.12-2.55-1.4-2.43-2.86l3.22-39.41c.12-1.46,1.4-2.56,2.86-2.43,1.46.12,2.55,1.4,2.43,2.86l-3.22,39.41c-.11,1.39-1.27,2.44-2.64,2.44Z"/>
      <path class="cls-1" d="m648.65,484.06c-1.08,0-2.1-.67-2.49-1.75l-45.75-125.5c-.5-1.38.21-2.9,1.58-3.4,1.38-.5,2.9.21,3.41,1.59l45.75,125.49c.5,1.38-.21,2.9-1.58,3.4-.3.11-.61.16-.91.16Z"/>
      <path class="cls-1" d="m556.84,341.92c-.05,0-.11,0-.16,0l-101.79-6.08c-1.46-.09-2.58-1.35-2.49-2.81.09-1.46,1.35-2.58,2.81-2.49l101.79,6.08c1.46.09,2.58,1.35,2.49,2.81-.08,1.41-1.25,2.5-2.65,2.5Z"/>
      <path class="cls-1" d="m677.65,353.83s-.09,0-.14,0l-60.1-3.18c-1.47-.08-2.59-1.33-2.51-2.79.08-1.47,1.35-2.59,2.79-2.51l60.1,3.18c1.47.08,2.59,1.33,2.51,2.79-.08,1.42-1.25,2.51-2.65,2.51Z"/>
    </g>
  </g>
</svg>