<?xml version="1.0" encoding="UTF-8"?>
<svg id="Layer_2" data-name="Layer 2" xmlns="http://www.w3.org/2000/svg" viewBox="0 0 573.21 402.77">
  <defs>
    <style>
      .cls-1 {
        fill: #fff;
      }
    </style>
  </defs>
  <g id="Layer_1-2" data-name="Layer 1">
    <g>
      <polygon class="cls-1" points="127.71 373.15 134.45 357.02 141.19 373.15 157.33 379.89 141.19 386.63 134.45 402.77 127.71 386.63 111.57 379.89 127.71 373.15"/>
      <polygon class="cls-1" points="335.13 105.58 341.87 89.45 348.61 105.58 364.75 112.32 348.61 119.06 341.87 135.2 335.13 119.06 319 112.32 335.13 105.58"/>
      <polygon class="cls-1" points="487.81 16.14 494.55 0 501.29 16.14 517.43 22.88 501.29 29.62 494.55 45.75 487.81 29.62 471.67 22.88 487.81 16.14"/>
      <polygon class="cls-1" points="543.59 121.26 550.33 105.12 557.07 121.26 573.21 128 557.07 134.74 550.33 150.88 543.59 134.74 527.45 128 543.59 121.26"/>
      <polygon class="cls-1" points="56.65 325.98 82.25 318.72 56.99 311.55 63.1 297 48.7 302.81 41.13 268.85 33.38 303.6 22.95 300.54 26.11 311.31 0 318.72 24.91 325.78 16.45 343.52 33.35 335.34 41.13 379.89 49.05 334.48 61.43 339.02 56.65 325.98"/>
      <polygon class="cls-1" points="321.9 254.19 347.51 246.93 322.25 239.76 328.36 225.21 313.95 231.02 306.38 197.06 298.64 231.81 288.21 228.75 291.36 239.52 265.26 246.93 290.16 253.99 281.71 271.73 298.61 263.54 306.38 308.1 314.31 262.69 326.69 267.23 321.9 254.19"/>
      <path class="cls-1" d="m113.69,367.25c-.49,0-.98-.13-1.42-.41l-43.7-27.76c-1.24-.79-1.6-2.43-.82-3.67.79-1.24,2.43-1.6,3.67-.82l43.7,27.76c1.24.79,1.6,2.43.82,3.67-.51.8-1.37,1.23-2.24,1.23Z"/>
      <path class="cls-1" d="m152.77,367.25c-.87,0-1.73-.43-2.23-1.22-.79-1.23-.44-2.88.79-3.67l127.49-82.25c1.23-.8,2.88-.44,3.67.79.79,1.23.44,2.88-.79,3.67l-127.49,82.25c-.45.29-.95.42-1.44.42Z"/>
      <path class="cls-1" d="m319,213.6c-.12,0-.24,0-.36-.02-1.45-.2-2.47-1.53-2.28-2.99l11.18-82.94c.2-1.45,1.54-2.47,2.99-2.28,1.45.2,2.47,1.53,2.28,2.99l-11.18,82.94c-.18,1.33-1.32,2.3-2.63,2.3Z"/>
      <path class="cls-1" d="m359.49,98.7c-.97,0-1.91-.54-2.38-1.47-.66-1.31-.12-2.91,1.19-3.56l117.16-58.6c1.31-.66,2.91-.12,3.56,1.19.66,1.31.12,2.91-1.19,3.56l-117.16,58.6c-.38.19-.79.28-1.19.28Z"/>
      <path class="cls-1" d="m341.88,234.42c-.99,0-1.94-.56-2.4-1.51-.63-1.32-.08-2.91,1.25-3.54l188.02-90.22c1.32-.63,2.91-.08,3.54,1.25.63,1.32.08,2.91-1.24,3.54l-188.02,90.22c-.37.18-.76.26-1.15.26Z"/>
    </g>
  </g>
</svg>