<?xml version="1.0" encoding="UTF-8"?>
<svg id="Layer_2" data-name="Layer 2" xmlns="http://www.w3.org/2000/svg" viewBox="0 0 701.16 408.56">
  <defs>
    <style>
      .cls-1 {
        fill: #fff;
      }
    </style>
  </defs>
  <g id="Layer_1-2" data-name="Layer 1">
    <g>
      <polygon class="cls-1" points="71.72 154.57 78.46 138.43 85.2 154.57 101.34 161.31 85.2 168.05 78.46 184.18 71.72 168.05 55.59 161.31 71.72 154.57"/>
      <polygon class="cls-1" points="192.69 96.51 199.43 80.38 206.17 96.51 222.31 103.25 206.17 109.99 199.43 126.13 192.69 109.99 176.55 103.25 192.69 96.51"/>
      <polygon class="cls-1" points="152.59 313.66 159.33 297.52 166.07 313.66 182.21 320.4 166.07 327.14 159.33 343.27 152.59 327.14 136.46 320.4 152.59 313.66"/>
      <polygon class="cls-1" points="192.69 350.98 199.43 334.84 206.17 350.98 222.31 357.72 206.17 364.46 199.43 380.59 192.69 364.46 176.55 357.72 192.69 350.98"/>
      <polygon class="cls-1" points="285.99 277.72 292.73 261.58 299.47 277.72 315.61 284.46 299.47 291.2 292.73 307.34 285.99 291.2 269.86 284.46 285.99 277.72"/>
      <polygon class="cls-1" points="598.29 328.1 605.03 311.96 611.77 328.1 627.9 334.84 611.77 341.58 605.03 357.72 598.29 341.58 582.15 334.84 598.29 328.1"/>
      <polygon class="cls-1" points="671.54 264.61 678.28 248.48 685.02 264.61 701.16 271.35 685.02 278.09 678.28 294.23 671.54 278.09 655.4 271.35 671.54 264.61"/>
      <polygon class="cls-1" points="432.5 135.07 439.24 118.93 445.98 135.07 462.12 141.81 445.98 148.55 439.24 164.69 432.5 148.55 416.36 141.81 432.5 135.07"/>
      <polygon class="cls-1" points="56.65 354.65 82.25 347.39 56.99 340.22 63.1 325.66 48.7 331.48 41.13 297.52 33.38 332.27 22.95 329.21 26.11 339.98 0 347.39 24.91 354.45 16.45 372.19 33.35 364 41.13 408.56 49.05 363.15 61.43 367.69 56.65 354.65"/>
      <polygon class="cls-1" points="483.83 289.36 509.44 282.1 484.18 274.93 490.29 260.38 475.88 266.19 468.31 232.23 460.57 266.98 450.14 263.92 453.29 274.69 427.19 282.1 452.09 289.16 443.64 306.9 460.54 298.71 468.31 343.27 476.24 297.86 488.62 302.4 483.83 289.36"/>
      <polygon class="cls-1" points="551.69 57.13 577.3 49.87 552.03 42.7 558.15 28.15 543.74 33.96 536.17 0 528.43 34.75 517.99 31.69 521.15 42.46 495.04 49.87 519.95 56.93 511.49 74.67 528.4 66.48 536.17 111.04 544.09 65.63 556.48 70.17 551.69 57.13"/>
      <polygon class="cls-1" points="326.5 152.11 352.11 144.84 326.85 137.68 332.96 123.12 318.55 128.94 310.98 94.97 303.24 129.72 292.81 126.67 295.96 137.44 269.86 144.84 294.76 151.91 286.31 169.65 303.21 161.46 310.98 206.02 318.91 160.6 331.29 165.15 326.5 152.11"/>
      <path class="cls-1" d="m98.62,148.89c-1.05,0-2.04-.63-2.46-1.66-.55-1.36.1-2.91,1.46-3.46l77.94-31.62c1.36-.55,2.91.1,3.46,1.46.55,1.36-.1,2.91-1.46,3.46l-77.94,31.62c-.33.13-.67.19-1,.19Z"/>
      <path class="cls-1" d="m282.34,133.08c-.23,0-.46-.03-.68-.09l-64.77-17.24c-1.42-.38-2.26-1.83-1.88-3.25.38-1.42,1.83-2.26,3.25-1.88l64.77,17.24c1.42.38,2.26,1.83,1.88,3.25-.32,1.19-1.39,1.97-2.56,1.97Z"/>
      <path class="cls-1" d="m73.62,341.02c-1.33,0-2.47-.99-2.63-2.34-.17-1.46.87-2.78,2.33-2.95l63.96-7.54c1.46-.18,2.78.87,2.95,2.33.17,1.46-.87,2.78-2.33,2.95l-63.96,7.54c-.11.01-.21.02-.31.02Z"/>
      <path class="cls-1" d="m185.69,345.93c-.72,0-1.44-.29-1.97-.87l-11.31-12.45c-.99-1.09-.9-2.77.18-3.75,1.09-.99,2.77-.91,3.75.18l11.31,12.45c.99,1.09.91,2.77-.18,3.75-.51.46-1.15.69-1.79.69Z"/>
      <path class="cls-1" d="m215.17,349.24c-.82,0-1.62-.38-2.14-1.08-.87-1.18-.61-2.84.57-3.71l64.43-47.3c1.18-.87,2.84-.61,3.71.57.87,1.18.61,2.84-.57,3.71l-64.43,47.3c-.47.35-1.02.51-1.57.51Z"/>
      <path class="cls-1" d="m295.71,251.13c-.06,0-.13,0-.19,0-1.46-.1-2.56-1.38-2.46-2.84l4.63-64.29c.11-1.46,1.38-2.57,2.84-2.46,1.46.11,2.56,1.38,2.46,2.84l-4.63,64.29c-.1,1.4-1.27,2.47-2.65,2.47Z"/>
      <path class="cls-1" d="m409.32,148.89h-48.84c-1.47,0-2.66-1.19-2.66-2.66s1.19-2.66,2.66-2.66h48.84c1.47,0,2.66,1.19,2.66,2.66s-1.19,2.66-2.66,2.66Z"/>
      <path class="cls-1" d="m462.11,229.29c-1.23,0-2.33-.86-2.6-2.11l-13.73-65.33c-.3-1.44.62-2.84,2.05-3.14,1.44-.3,2.84.62,3.14,2.05l13.73,65.33c.3,1.44-.62,2.84-2.05,3.14-.18.04-.37.06-.55.06Z"/>
      <path class="cls-1" d="m440.68,303.44s-.09,0-.13,0l-135.21-6.55c-1.47-.07-2.6-1.32-2.52-2.78.07-1.46,1.32-2.59,2.78-2.52l135.21,6.55c1.47.07,2.6,1.32,2.52,2.78-.07,1.42-1.24,2.53-2.65,2.53Z"/>
      <path class="cls-1" d="m458.16,128.79c-.77,0-1.53-.33-2.06-.98-.93-1.14-.76-2.81.38-3.74l51.28-41.9c1.14-.93,2.81-.76,3.74.38.93,1.14.76,2.81-.38,3.74l-51.28,41.9c-.49.4-1.09.6-1.68.6Z"/>
      <path class="cls-1" d="m574.34,331.08c-.29,0-.58-.05-.87-.15l-79.3-27.64c-1.38-.48-2.12-2-1.63-3.38.48-1.38,2-2.12,3.38-1.63l79.3,27.64c1.38.48,2.12,2,1.63,3.38-.38,1.1-1.41,1.78-2.51,1.78Z"/>
      <path class="cls-1" d="m622.67,326.96c-.76,0-1.51-.32-2.04-.95-.94-1.12-.8-2.8.33-3.74l43.53-36.56c1.12-.94,2.8-.8,3.74.33.94,1.12.8,2.8-.33,3.74l-43.53,36.56c-.5.42-1.1.62-1.71.62Z"/>
    </g>
  </g>
</svg>